# xmcd
#
# Track frame offsets:
#	150
#	16462
#	38286
#	63372
#	83010
#	102786
#	124006
#	141950
#
# Disc length: 1979 seconds
#
# Revision: 0
# Processed by: cddbd v1.5.2PL0 Copyright (c) Steve Scherf et al.
# Submitted via: dBpowerAMP V4.0
#
DISCID=5a07b908
DTITLE=Sarah Mac Band - countdown to silence
DYEAR=2006
DGENRE=Acoustic Blues
TTITLE0=01 I can't change
TTITLE1=02 You don't know
TTITLE2=03 Save you
TTITLE3=04 Not done yet
TTITLE4=05 Awakening
TTITLE5=06 Let go
TTITLE6=07 I'm with you
TTITLE7=08 'hidden'
EXTD=
EXTT0=
EXTT1=
EXTT2=
EXTT3=
EXTT4=
EXTT5=
EXTT6=
EXTT7=
PLAYORDER=
